#!OML:ASF H:\Punching\Project 1\Capture day 1\Session 1\female.ASF
:FULLY-SPECIFIED
:DEGREES
994
root 1.54382 15.1882 2.62585 18.7343 -13.4692 -0.277928
lowerback 5.40389 -1.23365 -3.63775
upperback -2.85827 -1.78163 2.99943
thorax -5.81548 -0.677205 5.37673
lowerneck -6.32387 2.33506 13.0607
upperneck 21.8628 1.3062 -0.584284
head 7.9718 1.56632 -2.26062
rclavicle -9.74045e-015 3.57812e-015
rhumerus -0.690558 9.13614 -66.4062
rradius 118.127
rwrist -35.1719
rhand -6.85323 -9.18753
rfingers 7.12502
rthumb 19.012 -38.2783
lclavicle -9.74045e-015 3.57812e-015
lhumerus 23.2394 -40.9338 79.6693
lradius 133.479
lwrist 12.6727
lhand -24.137 9.973
lfingers 7.12502
lthumb 2.345 39.9399
rfemur -8.14068 2.07038 3.2746
rtibia 14.9017
rfoot -17.9753 -15.5421
rtoes -18.6636
lfemur -46.1877 4.85717 -13.8101
ltibia 38.7763
lfoot -8.38243 18.625
ltoes 3.13071
995
root 1.57498 15.2216 2.62164 18.7785 -16.4957 -0.357095
lowerback 5.62796 -1.26616 -4.257
upperback -2.81867 -1.90117 2.64503
thorax -5.88198 -0.717838 5.37254
lowerneck -6.03118 3.11385 13.9906
upperneck 22.1365 2.3734 -1.1209
head 8.11782 2.10124 -2.49834
rclavicle -6.15736e-014 2.18663e-015
rhumerus -1.41616 10.8805 -67.5951
rradius 120.51
rwrist -38.282
rhand -6.8234 -9.59373
rfingers 7.12502
rthumb 19.0407 -38.6817
lclavicle -6.15736e-014 2.18663e-015
lhumerus 23.1785 -40.4351 79.4483
lradius 134.027
lwrist 12.7105
lhand -24.2798 9.93501
lfingers 7.12502
lthumb 2.20709 39.9033
rfemur -10.3033 1.68341 2.57917
rtibia 16.0778
rfoot -17.6023 -13.6126
rtoes -18.6614
lfemur -45.2046 6.25839 -13.9519
ltibia 38.4901
lfoot -9.0549 19.8263
ltoes 3.97512
996
root 1.6069 15.2499 2.61823 18.8045 -19.5272 -0.423048
lowerback 5.87352 -1.30343 -4.89569
upperback -2.78581 -2.03321 2.28946
thorax -5.96545 -0.762806 5.38059
lowerneck -5.69011 3.89471 14.9301
upperneck 22.3426 3.47064 -1.70732
head 8.25329 2.64444 -2.7493
rclavicle -4.9895e-014 8.34896e-015
rhumerus -2.08322 12.524 -68.7301
rradius 122.764
rwrist -41.7325
rhand -6.97795 -10.225
rfingers 7.12502
rthumb 18.892 -39.3276
lclavicle -4.9895e-014 8.34896e-015
lhumerus 23.1079 -39.8812 79.2005
lradius 134.593
lwrist 12.6989
lhand -24.4391 9.89218
lfingers 7.12502
lthumb 2.05332 39.862
rfemur -12.4463 1.2295 1.97522
rtibia 17.2249
rfoot -17.2612 -11.7254
rtoes -18.53
lfemur -44.256 7.68204 -14.1326
ltibia 38.3135
lfoot -9.81627 20.9915
ltoes 4.81447
997
root 1.63887 15.2719 2.61513 18.8212 -22.5321 -0.487465
lowerback 6.12703 -1.35099 -5.54298
upperback -2.75736 -2.18395 1.94292
thorax -6.05453 -0.815779 5.40554
lowerneck -5.28298 4.67433 15.8746
upperneck 22.4553 4.60049 -2.35038
head 8.36773 3.19574 -3.01497
rclavicle 1.10822e-014 -2.32578e-014
rhumerus -2.68227 14.0388 -69.7919
rradius 124.863
rwrist -45.3415
rhand -7.23589 -10.9796
rfingers 7.12502
rthumb 18.6439 -40.1062
lclavicle 1.10822e-014 -2.32578e-014
lhumerus 23.0373 -39.2571 78.924
lradius 135.161
lwrist 12.622
lhand -24.6086 9.84332
lfingers 7.12502
lthumb 1.88958 39.8147
rfemur -14.515 0.745407 1.48819
rtibia 18.2638
rfoot -16.9274 -9.98278
rtoes -18.3822
lfemur -43.3607 9.1312 -14.3359
ltibia 38.2342
lfoot -10.629 22.0938
ltoes 5.5986
998
root 1.67049 15.2868 2.61198 18.8307 -25.4827 -0.552614
lowerback 6.39538 -1.40944 -6.18785
upperback -2.73891 -2.35399 1.61006
thorax -6.15885 -0.876827 5.44658
lowerneck -4.80766 5.44202 16.8014
upperneck 22.4748 5.74984 -3.03724
head 8.45963 3.74905 -3.28886
rclavicle -1.30204e-014 -3.97569e-016
rhumerus -3.22711 15.4159 -70.757
rradius 126.782
rwrist -48.8735
rhand -7.52374 -11.7392
rfingers 7.12502
rthumb 18.367 -40.8921
lclavicle -1.30204e-014 -3.97569e-016
lhumerus 22.9669 -38.5512 78.6325
lradius 135.713
lwrist 12.4828
lhand -24.7469 9.76332
lfingers 7.12502
lthumb 1.756 39.7358
rfemur -16.5312 0.270682 1.12217
rtibia 19.2887
rfoot -16.6646 -8.49832
rtoes -18.3375
lfemur -42.5561 10.5913 -14.5505
ltibia 38.3053
lfoot -11.4964 23.117
ltoes 6.29004
999
root 1.70188 15.3023 2.60871 18.8392 -28.3372 -0.623089
lowerback 6.6786 -1.47681 -6.79868
upperback -2.73846 -2.53911 1.28386
thorax -6.28862 -0.944515 5.47826
lowerneck -4.23544 6.17775 17.6988
upperneck 22.3795 6.89344 -3.74483
head 8.51309 4.29396 -3.56484
rclavicle 3.4191e-014 2.22639e-014
rhumerus -3.75029 16.6486 -71.6222
rradius 128.483
rwrist -52.0344
rhand -7.74694 -12.4172
rfingers 7.12502
rthumb 18.1523 -41.5902
lclavicle 3.4191e-014 2.22639e-014
lhumerus 22.899 -37.8059 78.3231
lradius 136.243
lwrist 12.302
lhand -24.8677 9.69439
lfingers 7.12502
lthumb 1.63939 39.6678
rfemur -18.4689 -0.152363 0.886389
rtibia 20.3031
rfoot -16.4943 -7.35698
rtoes -18.4925
lfemur -41.8424 12.031 -14.767
ltibia 38.5162
lfoot -12.4028 24.0499
ltoes 6.86589
1000
root 1.73198 15.3029 2.60364 18.8445 -31.0419 -0.687545
lowerback 6.97117 -1.57406 -7.36734
upperback -2.73699 -2.76559 0.967095
thorax -6.41668 -1.03364 5.50113
lowerneck -3.6154 6.89292 18.5446
upperneck 22.1747 8.03559 -4.45352
head 8.53692 4.8332 -3.83146
rclavicle 2.34566e-014 -7.95139e-016
rhumerus -4.2119 17.812 -72.4031
rradius 129.918
rwrist -54.4737
rhand -7.86493 -12.915
rfingers 7.12502
rthumb 18.0388 -42.0985
lclavicle 2.34566e-014 -7.95139e-016
lhumerus 22.8815 -37.0003 77.9492
lradius 136.745
lwrist 12.1022
lhand -24.9999 9.66511
lfingers 7.12502
lthumb 1.51169 39.6395
rfemur -20.3142 -0.513106 0.74405
rtibia 21.3512
rfoot -16.4545 -6.59848
rtoes -18.7922
lfemur -41.2953 13.426 -14.9763
ltibia 38.9157
lfoot -13.2972 24.8768
ltoes 7.2862
1001
root 1.76077 15.2956 2.59689 18.8478 -33.5636 -0.740035
lowerback 7.28185 -1.70085 -7.88656
upperback -2.7397 -3.03321 0.656937
thorax -6.5539 -1.14382 5.50909
lowerneck -2.97769 7.57535 19.3405
upperneck 21.8838 9.1497 -5.15549
head 8.54003 5.35628 -4.08859
rclavicle 5.94366e-014 6.36111e-015
rhumerus -4.64094 18.9667 -73.1167
rradius 131.064
rwrist -55.9212
rhand -7.89175 -13.1513
rfingers 7.12502
rthumb 18.013 -42.3371
lclavicle 5.94366e-014 6.36111e-015
lhumerus 22.9127 -36.1551 77.5165
lradius 137.215
lwrist 11.9396
lhand -25.1324 9.66582
lfingers 7.12502
lthumb 1.38368 39.6411
rfemur -22.0461 -0.80135 0.681855
rtibia 22.4333
rfoot -16.5347 -6.22899
rtoes -19.1258
lfemur -40.9105 14.7574 -15.1875
ltibia 39.4829
lfoot -14.1595 25.5974
ltoes 7.54462
1002
root 1.78796 15.2794 2.5869 18.8636 -35.8673 -0.788361
lowerback 7.62012 -1.85777 -8.33786
upperback -2.7538 -3.34202 0.354054
thorax -6.71437 -1.27487 5.49383
lowerneck -2.32989 8.21649 20.078
upperneck 21.5117 10.2175 -5.83264
head 8.51989 5.85588 -4.33081
rclavicle 2.62396e-014 2.62396e-014
rhumerus -5.082 20.1664 -73.7989
rradius 131.93
rwrist -56.2269
rhand -7.86611 -13.0985
rfingers 7.12502
rthumb 18.0377 -42.2821
lclavicle 2.62396e-014 2.62396e-014
lhumerus 22.9996 -35.2895 77.0199
lradius 137.655
lwrist 11.8643
lhand -25.2818 9.69742
lfingers 7.12502
lthumb 1.23943 39.6736
rfemur -23.6847 -0.999152 0.688196
rtibia 23.6082
rfoot -16.7857 -6.21585
rtoes -19.2104
lfemur -40.7367 16.0187 -15.3946
ltibia 40.2509
lfoot -14.9792 26.2052
ltoes 7.66647
1003
root 1.8132 15.254 2.5746 18.8864 -37.9202 -0.820379
lowerback 7.97575 -2.04884 -8.70587
upperback -2.77786 -3.69476 0.0543118
thorax -6.89196 -1.42919 5.44292
lowerneck -1.69113 8.80761 20.7555
upperneck 21.0737 11.2196 -6.47799
head 8.47949 6.32374 -4.55759
rclavicle 2.5842e-014 1.51076e-014
rhumerus -5.55625 21.4256 -74.4809
rradius 132.53
rwrist -55.4037
rhand -7.82871 -12.8012
rfingers 7.12502
rthumb 18.0736 -41.9814
lclavicle 2.5842e-014 1.51076e-014
lhumerus 23.1371 -34.4071 76.4738
lradius 138.06
lwrist 11.9108
lhand -25.4361 9.72708
lfingers 7.12502
lthumb 1.0904 39.704
rfemur -25.1658 -1.12074 0.726774
rtibia 24.7892
rfoot -17.1772 -6.46769
rtoes -18.8683
lfemur -40.7657 17.2044 -15.6153
ltibia 41.177
lfoot -15.7293 26.6983
ltoes 7.67814
